<svg width="24" height="24" viewBox="0 0 24 24" fill="none" xmlns="http://www.w3.org/2000/svg">
<path d="M12 0.600006C18.63 0.600006 24 5.97175 24 12.5969C24 17.8985 20.562 22.3942 15.795 23.9793C15.195 24.0922 14.975 23.7209 14.975 23.4025C14.975 23.1176 14.985 22.3627 14.99 21.3626C18.328 22.086 19.032 19.7531 19.032 19.7531C19.578 18.3685 20.367 17.9982 20.367 17.9982C21.454 17.2545 20.283 17.2697 20.283 17.2697C19.078 17.3531 18.445 18.5058 18.445 18.5058C17.375 20.3402 15.636 19.8101 14.95 19.5039C14.842 18.7276 14.533 18.1996 14.19 17.8995C16.855 17.5993 19.656 16.5677 19.656 11.9712C19.656 10.6619 19.191 9.59158 18.421 8.75224C18.556 8.44906 18.961 7.22923 18.316 5.57701C18.316 5.57701 17.311 5.25552 15.016 6.80702C14.056 6.54046 13.036 6.40821 12.016 6.4021C10.996 6.40821 9.976 6.54046 9.016 6.80702C6.736 5.25552 5.731 5.57701 5.731 5.57701C5.086 7.22923 5.491 8.44906 5.611 8.75224C4.846 9.59158 4.381 10.6619 4.381 11.9712C4.381 16.5799 7.186 17.5943 9.856 17.8893C9.436 18.2494 9.046 18.985 9.046 20.1092C9.046 21.7146 9.061 23.0047 9.061 23.3943C9.061 23.7087 8.851 24.0841 8.236 23.964C3.435 22.3891 0 17.8903 0 12.5969C0 5.97175 5.373 0.600006 12 0.600006V0.600006Z" fill="#474350"/>
</svg>
